<?xml version="1.0" encoding="utf-8" ?>
<svg baseProfile="full" height="200mm" version="1.1" viewBox="0,0,200,200" width="200mm" xmlns="http://www.w3.org/2000/svg" xmlns:ev="http://www.w3.org/2001/xml-events" xmlns:xlink="http://www.w3.org/1999/xlink"><defs /><rect fill="#1a1a1a" height="200" width="200" x="0" y="0" /><text alignment-baseline="middle" fill="#e1ed5e" style="dominant-baseline: central; font-size:9.0px; font-family:Arial;" text-anchor="middle" x="100.0" y="100.0">2022</text><line stroke="#e1ed5e" stroke-width="0.3" x1="100.0" x2="100.0" y1="15.0" y2="10.0" /><path d="M 100.0 14.0 a86.0,86.0 0 0,1 42.46469731375804,11.215312516191453" fill="none" id="id121" stroke="none" /><text fill="#e1ed5e" style="font-size:6.75px; font-family:Arial;" text-anchor="middle"><textPath startOffset="22.20632615414155" xlink:href="#id121">January</textPath></text><path d="M 100.0 79.0 l 0.0 -24.927345952546524 a45.927345952546524,45.927345952546524 0 0,0 0.7905637631734159,0.006804631899521148 l -0.4290832839008875 24.923652697255562" fill="#ffbe11" stroke="none" /><path d="M 104.66035177308747 79.52364482259891 l 3.094079849774313 -13.594569902873607 a34.94222582520081,34.94222582520081 0 0,0 0.5853260652434302,0.1385277685164227 l -3.3276296019802665 13.539296222216317" fill="#ff0000" stroke="none" /><line stroke="#e1ed5e" stroke-width="0.3" x1="143.23703022742887" x2="145.7803849466894" y1="26.81831364943548" y2="22.513508569990506" /><path d="M 143.74570117128098 25.957352633546492 a86.0,86.0 0 0,1 28.547481713284135,27.462654790039103" fill="none" id="id122" stroke="none" /><text fill="#e1ed5e" style="font-size:6.75px; font-family:Arial;" text-anchor="middle"><textPath startOffset="19.985693538727396" xlink:href="#id122">February</textPath></text><line stroke="#e1ed5e" stroke-width="0.3" x1="172.23445277983987" x2="176.4835382374775" y1="55.19839476539836" y2="52.563006222186495" /><path d="M 173.08426987136738 54.67131705675599 a86.0,86.0 0 0,1 12.851231095245387,41.99856678651699" fill="none" id="id123" stroke="none" /><text fill="#e1ed5e" style="font-size:6.75px; font-family:Arial;" text-anchor="middle"><textPath startOffset="22.20632615414155" xlink:href="#id123">March</textPath></text><path d="M 120.83666639777658 97.38593545837742 l 23.703547501322063 -2.973729187337006 a44.88935389304306,44.88935389304306 0 0,0 0.08958557026449554,0.7675144570404171 l -23.751223424590147 2.565270991971736" fill="#ffae10" stroke="none" /><line stroke="#e1ed5e" stroke-width="0.3" x1="184.98032266829074" x2="189.97916517819016" y1="98.17113171792111" y2="98.06355123074" /><path d="M 185.9800911702706 98.14961562048488 a86.0,86.0 0 0,1 -9.607161424134198,41.387399972396054" fill="none" id="id124" stroke="none" /><text fill="#e1ed5e" style="font-size:6.75px; font-family:Arial;" text-anchor="middle"><textPath startOffset="21.466115282336823" xlink:href="#id124">April</textPath></text><path d="M 120.8583938346157 102.4346265915055 l 46.63980834426187 5.44387638463403 a67.95644271535755,67.95644271535755 0 0,0 -0.1456160647211482,1.1607033087516405 l -46.53919077029388 -6.245897447673065" fill="#34ff5a" stroke="none" /><path d="M 119.54520255179757 107.68017299344265 l 20.83184619457243 8.185752085357219 a43.3824116903709,43.3824116903709 0 0,0 -0.2790881145989831,0.6926738125849847 l -20.687855465716055 -8.543125265785019" fill="#ff950d" stroke="none" /><path d="M 118.64920377521936 109.65438752849418 l 24.134855453260784 12.494219608430978 a48.177136923772764,48.177136923772764 0 0,0 -0.38759078305606187,0.7331756941417695 l -23.91621216197983 -12.907810317658882" fill="#ffe215" stroke="none" /><line stroke="#e1ed5e" stroke-width="0.3" x1="174.80103733775053" x2="179.2010983576182" y1="140.37084112569926" y2="142.7455964860345" /><path d="M 175.68104954172406 140.8457921977663 a86.0,86.0 0 0,1 -30.038265399797805,32.042727171017184" fill="none" id="id125" stroke="none" /><text fill="#e1ed5e" style="font-size:6.75px; font-family:Arial;" text-anchor="middle"><textPath startOffset="22.206326154141568" xlink:href="#id125">May</textPath></text><path d="M 117.94076556474637 110.91462005526583 l 21.605573207867387 13.144178367922235 a46.28972555422996,46.28972555422996 0 0,0 -0.419991882768872,0.6771606433501948 l -21.37611668543055 -13.514135342637704" fill="#ffc412" stroke="none" /><path d="M 117.75023020441432 111.22182372390056 l 23.904460659645977 15.112572662339375 a49.28096695488062,49.28096695488062 0 0,0 -0.4594749360877104,0.7131153044082319 l -23.640780860181216 -15.52180956666906" fill="#fff417" stroke="none" /><path d="M 117.55443506779139 111.5257021239791 l 28.570438885891733 18.758471399305915 a55.178212758584266,55.178212758584266 0 0,0 -0.528126162545808,0.7894769559072736 l -28.243309617935203 -19.247485269418995" fill="#b3ff20" stroke="none" /><path d="M 117.35343817320211 111.8261652097733 l 19.291329899105133 13.146815762156196 a44.3451102794608,44.3451102794608 0 0,0 -0.4352981335620513,0.6270794274650525 l -19.062170858380945 -13.47693645180827" fill="#ffa50f" stroke="none" /><path d="M 117.14729908036423 112.12312394758627 l 42.686500993268204 30.17931512157205 a73.2774179570437,73.2774179570437 0 0,0 -0.7370319730984048,1.0236729479956403 l -42.160689227794194 -30.90962167501882" fill="#3cffa6" stroke="none" /><path d="M 115.07121518719521 114.62390073753431 l 25.300609904366333 24.54968648811309 a56.25348164646383,56.25348164646383 0 0,0 -0.6802904303517074,0.6891306142970015 l -24.87427884895909 -24.981557596390758" fill="#a3ff21" stroke="none" /><path d="M 114.81725581225074 114.88116024355365 l 14.195910538370924 14.257135207856052 a41.1193881703326,41.1193881703326 0 0,0 -0.5058664710516014,0.49509681270263844 l -13.948394114943529 -14.499382123481263" fill="#ff6e0a" stroke="none" /><path d="M 114.55890576462653 115.13401014063108 l 19.397450532698773 20.16368659913388 a48.97919484968406,48.97919484968406 0 0,0 -0.612622826066777,0.579273120034956 l -19.04749187224119 -20.494594355914757" fill="#ffef16" stroke="none" /><path d="M 114.29624159901734 115.38237550388516 l 25.804023217482477 27.764442276183228 a58.903982232951265,58.903982232951265 0 0,0 -0.748642828389073,0.6838674735832818 l -25.32228083962654 -28.20450251635309" fill="#7fff26" stroke="none" /><path d="M 114.0293411484842 115.62618273729858 l 39.30789391872951 43.78197998690618 a79.83852730906804,79.83852730906804 0 0,0 -1.030516350466625,0.9093108632052482 l -38.5484352153563 -44.45211399188372" fill="#46fffb" stroke="none" /><path d="M 112.92097659922987 116.55440617244103 l 8.80571689069902 11.281919205460412 a35.31161594362001,35.31161594362001 0 0,0 -0.482375626890271,0.3698650611475115 l -8.610212535315256 -11.431823608435295" fill="#ff0701" stroke="none" /><line stroke="#e1ed5e" stroke-width="0.3" x1="143.8653032363475" x2="146.44561519142675" y1="172.8068346515853" y2="177.08958963109032" /><path d="M 144.38136562736335 173.6633856474863 a86.0,86.0 0 0,1 -40.68145358897372,12.25698825130547" fill="none" id="id126" stroke="none" /><text fill="#e1ed5e" style="font-size:6.75px; font-family:Arial;" text-anchor="middle"><textPath startOffset="21.466115282336833" xlink:href="#id126">June</textPath></text><path d="M 108.59647513512805 119.15986991738527 l 8.034045926091054 17.90632467779607 a40.62606321729319,40.62606321729319 0 0,0 -0.6404976000615655,0.2807753253775989 l -7.724627651371733 -18.041964556468123" fill="#ff6609" stroke="none" /><path d="M 104.13013068566511 120.58985236759428 l 4.8924315784000205 24.39013474015305 a45.875983586426216,45.875983586426216 0 0,0 -0.7755933279313446,0.1486443072257205 l -4.4718706358969715 -24.470736245727238" fill="#ffbe11" stroke="none" /><path d="M 100.90346689309514 120.98055641714683 l 1.3871125006219005 32.211907595780254 a53.24175975421421,53.24175975421421 0 0,0 -0.9159602019154838,0.031547521370055946 l -0.8324319470317645 -32.2310119155764" fill="#cfff1d" stroke="none" /><line stroke="#e1ed5e" stroke-width="0.3" x1="102.19456741930631" x2="102.32365962044197" y1="184.97166512339345" y2="189.96999836594603" /><path d="M 102.22038585953345 185.97133177190398 a86.0,86.0 0 0,1 -42.740103519485714,-10.115201625700543" fill="none" id="id127" stroke="none" /><text fill="#e1ed5e" style="font-size:6.75px; font-family:Arial;" text-anchor="middle"><textPath startOffset="22.20632615414155" xlink:href="#id127">July</textPath></text><path d="M 100.54218724476979 120.99299961872073 l 0.6772294105530182 26.221710109691635 a47.230454070626045,47.230454070626045 0 0,0 -0.81290428408558,0.013994884455717938 l -0.22576543657477016 -26.229482471426515" fill="#ffd313" stroke="none" /><path d="M 99.09653310690486 120.98055641714683 l -1.3132221181765347 30.49600483340184 a51.52426679103917,51.52426679103917 0 0,0 -0.8857559560862751,-0.0457834654646026 l 1.8379661426762988 -30.46888156117504" fill="#e8ff1a" stroke="none" /><path d="M 98.37488393609728 120.93702456842531 l -1.9628908815490462 25.28871354174894 a46.364778201464816,46.364778201464816 0 0,0 -0.7951684917100312,-0.06861048335925936 l 2.3979036910006193 -25.251178806111017" fill="#ffc512" stroke="none" /><path d="M 97.65516085044442 120.86867818915974 l -2.1145587903961065 18.81922131724848 a39.937646365523385,39.937646365523385 0 0,0 -0.6825012413551281,-0.08264139556037248 l 2.438187454802624 -18.78003439296276" fill="#ff5a08" stroke="none" /><path d="M 96.93821686468263 120.77559828337769 l -2.7262334462558755 18.4987402447919 a39.69854912681109,39.69854912681109 0 0,0 -0.6751856197558256,-0.10545010791226661 l 3.0442549296202186 -18.449071829532528" fill="#ff5607" stroke="none" /><path d="M 96.58105272829116 120.7198165907248 l -3.041022972818868 18.429485229672608 a39.67869766744815,39.67869766744815 0 0,0 -0.672933761186249,-0.11699816009541075 l 3.357805705477167 -18.37440849105619" fill="#ff5507" stroke="none" /><path d="M 96.22490169976321 120.6578951692458 l -5.423426932306218 29.67779276598404 a51.169271505138454,51.169271505138454 0 0,0 -0.8650832630046618,-0.16579526627035798 l 5.933477809882574 -29.580040301365212" fill="#eeff19" stroke="none" /><path d="M 95.86986931433489 120.58985236759428 l -7.098177113781357 35.38639088565767 a57.09128396512329,57.09128396512329 0 0,0 -0.9618754164200074,-0.20157034565031484 l 7.7062439916307515 -35.25896455928081" fill="#98ff23" stroke="none" /><path d="M 95.51606077576429 120.51570834832081 l -4.204096040936113 19.235320536459056 a40.68938748823178,40.68938748823178 0 0,0 -0.6829613915784696,-0.15543978919186466 l 4.534577581907445 -19.160104013689505" fill="#ff6709" stroke="none" /><path d="M 94.11515582081647 120.15858648285463 l -12.009205575356896 41.137641339349685 a63.854714484128294,63.854714484128294 0 0,0 -1.052462603949034,-0.31709834908745704 l 12.715543153746177 -40.9248276211565" fill="#3fff2d" stroke="none" /><path d="M 93.76903079525671 120.05430185196036 l -15.917553414105459 51.230460370141465 a74.64632863885035,74.64632863885035 0 0,0 -1.2237684579849053,-0.391812014912595 l 16.797043217181304 -50.94887550856916" fill="#3effb8" stroke="none" /><path d="M 93.08242187328487 119.8279376855182 l -9.192782035723784 26.349382113510973 a48.906937834885035,48.906937834885035 0 0,0 -0.7924797283194916,-0.28415503549715454 l 9.644981324673003 -26.18723953697386" fill="#ffee16" stroke="none" /><path d="M 92.7421414339146 119.70592522655815 l -15.755904171912839 42.77910166772416 a66.5883763230495,66.5883763230495 0 0,0 -1.0721672850497108,-0.405401925498091 l 16.489941677722832 -42.50155149211944" fill="#32ff46" stroke="none" /><path d="M 92.40401165467489 119.57807347666478 l -21.620195750926914 55.72438526081045 a80.77156495361007,80.77156495361007 0 0,0 -1.2918793487158913,-0.5140654542052546 l 22.576196175684665 -55.34397296219913" fill="#48f8ff" stroke="none" /><path d="M 91.7346041902142 119.30500536409082 l -12.442789929254573 29.06190240086518 a52.613560261080565,52.613560261080565 0 0,0 -0.8294886683377486,-0.36362345577434213 l 12.941199272250065 -28.843414391796383" fill="#d8ff1c" stroke="none" /><path d="M 91.07499286063937 119.00905698771935 l -13.112581395315525 27.92802326178504 a51.853108014583896,51.853108014583896 0 0,0 -0.8046795727032386,-0.38629509519466276 l 13.591373636019005 -27.698173890090814" fill="#e3ff1b" stroke="none" /><path d="M 90.7491055286396 118.85261126421891 l -23.16242063876746 47.20323138404466 a73.57987051089856,73.57987051089856 0 0,0 -1.1322403632764455,-0.5677288230711841 l 23.971514909726668 -46.79753472006418" fill="#3dffaa" stroke="none" /><path d="M 90.42595943632237 118.69057910512821 l -14.38148654959005 28.075744009716 a52.5448023781279,52.5448023781279 0 0,0 -0.801456106031514,-0.4192839555208533 l 14.86263355814806 -27.82403063525043" fill="#d9ff1c" stroke="none" /><path d="M 90.10565033884886 118.52300852407294 l -17.14625204640921 32.09914584467902 a57.39160786770717,57.39160786770717 0 0,0 -0.8673708155900243,-0.4729597262878333 l 17.696245673867875 -31.799245466631422" fill="#94ff23" stroke="none" /><line stroke="#e1ed5e" stroke-width="0.3" x1="58.666819895761336" x2="56.23545636021788" y1="174.27360380694188" y2="178.64263932499728" /><path d="M 58.180547188652646 175.14741091055294 a86.0,86.0 0 0,1 -31.652253787137756,-30.449443065178592" fill="none" id="id128" stroke="none" /><text fill="#e1ed5e" style="font-size:6.75px; font-family:Arial;" text-anchor="middle"><textPath startOffset="22.20632615414155" xlink:href="#id128">August</textPath></text><path d="M 89.7882731507175 118.34994917583269 l -28.58768357677567 51.37060052928064 a79.78940594209791,79.78940594209791 0 0,0 -1.194376102120135,-0.6781979220853032 l 29.467708445817014 -50.8708994414007" fill="#46fffa" stroke="none" /><path d="M 89.4739219176387 118.17145234162733 l -31.57823424708386 54.51435702488198 a84.0,84.0 0 0,0 -1.2449285158864716,-0.735525710825002 l 32.511930633998716 -53.962712741763234" fill="#4dd2ff" stroke="none" /><path d="M 89.1626897886671 117.98757091392108 l -16.034778865413912 26.61423511057745 a52.07139590980454,52.07139590980454 0 0,0 -0.7637653823228333,-0.4691670787847922 l 16.490523447669055 -26.334279564964277" fill="#e0ff1b" stroke="none" /><path d="M 88.8546689885994 117.79835938074946 l -15.15861907833882 24.207316031814717 a49.561825603877836,49.561825603877836 0 0,0 -0.7191614373942049,-0.45900285529072316 l 15.573062317779947 -23.94279874770019" fill="#fff817" stroke="none" /><path d="M 87.36589467227662 116.77436683061367 l -17.244595292463693 22.895738145107316 a49.663406845840626,49.663406845840626 0 0,0 -0.6784287937719797,-0.5201902693764935 l 17.636152814729158 -22.59550853390346" fill="#fff917" stroke="none" /><path d="M 87.07902340077011 116.55440617244103 l -21.21378175538754 27.17918084095405 a55.47799889132919,55.47799889132919 0 0,0 -0.7477443764393068,-0.5940533556914712 l 21.678483624544203 -26.809993571257447" fill="#aeff20" stroke="none" /><path d="M 85.70375840098266 115.38237550388516 l -13.033037965440622 14.023202010980228 a40.14445802965904,40.14445802965904 0 0,0 -0.5021195510568219,-0.4747853762463811 l 13.272493350888261 -13.796781997987917" fill="#ff5d08" stroke="none" /><path d="M 84.9287848128048 114.62390073753433 l -20.51205629264672 19.903257396340496 a49.58118451600092,49.58118451600092 0 0,0 -0.5890562243625382,-0.6176230962283703 l 20.851619068388214 -19.54722718352963" fill="#fff817" stroke="none" /><path d="M 84.43433777217949 114.09645910891817 l -29.00134634888551 26.263983306791825 a60.12639657810893,60.12639657810893 0 0,0 -0.688135586670615,-0.7731276264997109 l 29.449140785204463 -25.76088151055125" fill="#6fff28" stroke="none" /><path d="M 83.72743513129214 113.27417163493432 l -31.22092067654178 25.468133819397952 a61.29108745285582,61.29108745285582 0 0,0 -0.6598484297033218,-0.8232623723891138 l 31.654687018299963 -24.92694361343058" fill="#5fff29" stroke="none" /><path d="M 83.50135304334701 112.99209946851258 l -42.81043901670895 33.71170275096353 a75.49048165664053,75.49048165664053 0 0,0 -0.7951419003511114,-1.0278280924106364 l 43.38438773427813 -32.96979666443964" fill="#40ffc3" stroke="none" /><path d="M 83.28015986056508 112.70617746262583 l -18.79676805788719 14.284530753617798 a44.608606656748314,44.608606656748314 0 0,0 -0.45933850466440246,-0.6153589910235874 l 19.039867829246678 -13.958858883084902" fill="#ffa90f" stroke="none" /><line stroke="#e1ed5e" stroke-width="0.3" x1="26.63291911575756" x2="22.317208475507996" y1="142.92168965132927" y2="145.44649492493687" /><path d="M 25.769776987707644 143.4266507060508 a86.0,86.0 0 0,1 -11.730757126820373,-40.83630448921669" fill="none" id="id129" stroke="none" /><text fill="#e1ed5e" style="font-size:6.75px; font-family:Arial;" text-anchor="middle"><textPath startOffset="21.46611528233685" xlink:href="#id129">September</textPath></text><line stroke="#e1ed5e" stroke-width="0.3" x1="15.007084014347285" x2="10.007500721073583" y1="101.09737516637583" y2="101.16192664675087" /><path d="M 14.007167355692545 101.11028546245083 a86.0,86.0 0 0,1 10.666146001902534,-42.60595125391555" fill="none" id="id130" stroke="none" /><text fill="#e1ed5e" style="font-size:6.75px; font-family:Arial;" text-anchor="middle"><textPath startOffset="22.20632615414155" xlink:href="#id130">October</textPath></text><line stroke="#e1ed5e" stroke-width="0.3" x1="26.266209847984243" x2="21.928928074336255" y1="57.711370442889674" y2="55.22380399835377" /><path d="M 25.398753493254645 57.213857153982495 a86.0,86.0 0 0,1 29.58750427330803,-30.492523968695096" fill="none" id="id131" stroke="none" /><text fill="#e1ed5e" style="font-size:6.75px; font-family:Arial;" text-anchor="middle"><textPath startOffset="21.46611528233685" xlink:href="#id131">November</textPath></text><line stroke="#e1ed5e" stroke-width="0.3" x1="56.762969772571076" x2="54.21961505331055" y1="26.818313649435495" y2="22.513508569990535" /><path d="M 56.25429882871897 25.957352633546506 a86.0,86.0 0 0,1 42.265352541879196,-11.944610805530505" fill="none" id="id132" stroke="none" /><text fill="#e1ed5e" style="font-size:6.75px; font-family:Arial;" text-anchor="middle"><textPath startOffset="22.20632615414155" xlink:href="#id132">December</textPath></text></svg>