<?xml version="1.0" encoding="utf-8" ?>
<svg baseProfile="full" height="200mm" version="1.1" viewBox="0,0,200,200" width="200mm" xmlns="http://www.w3.org/2000/svg" xmlns:ev="http://www.w3.org/2001/xml-events" xmlns:xlink="http://www.w3.org/1999/xlink"><defs /><rect fill="#1a1a1a" height="200" width="200" x="0" y="0" /><text alignment-baseline="middle" fill="#e1ed5e" style="dominant-baseline: central; font-size:9.0px; font-family:Arial;" text-anchor="middle" x="100.0" y="100.0">2020</text><line stroke="#e1ed5e" stroke-width="0.3" x1="100.0" x2="100.0" y1="15.0" y2="10.0" /><path d="M 100.0 14.0 a86.0,86.0 0 0,1 42.35913384403234,11.155469271406648" fill="none" id="id97" stroke="none" /><text fill="#e1ed5e" style="font-size:6.75px; font-family:Arial;" text-anchor="middle"><textPath startOffset="22.145653131862478" xlink:href="#id97">January</textPath></text><path d="M 109.06512990194946 81.05736502329252 l 13.532316938514654 -28.27733776879175 a52.34854754234631,52.34854754234631 0 0,0 0.80726383750506,0.39487319543049565 l -14.01574102528178 28.040870823264033" fill="#96ff23" stroke="none" /><line stroke="#e1ed5e" stroke-width="0.3" x1="143.13028292997686" x2="145.6673583964461" y1="26.7553504044142" y2="22.446841604673864" /><path d="M 143.63769802327073 25.89364864446614 a86.0,86.0 0 0,1 29.32050498858742,28.57503671076993" fill="none" id="id98" stroke="none" /><text fill="#e1ed5e" style="font-size:6.75px; font-family:Arial;" text-anchor="middle"><textPath startOffset="20.669276256404974" xlink:href="#id98">February</textPath></text><line stroke="#e1ed5e" stroke-width="0.3" x1="172.87174338648825" x2="177.1583165268699" y1="56.24261187166439" y2="53.66864786411523" /><path d="M 173.72905801456457 55.72781907015455 a86.0,86.0 0 0,1 12.242430191666344,42.057860355516425" fill="none" id="id99" stroke="none" /><text fill="#e1ed5e" style="font-size:6.75px; font-family:Arial;" text-anchor="middle"><textPath startOffset="22.145653131862474" xlink:href="#id99">March</textPath></text><path d="M 120.05942366710727 93.78553927170692 l 42.05586533723573 -13.02901458535887 a65.02784380740442,65.02784380740442 0 0,0 0.32118701247301523,1.0691271041082182 l -42.27332866971237 12.305149877659929" fill="#34ff5a" stroke="none" /><line stroke="#e1ed5e" stroke-width="0.3" x1="184.99686870605535" x2="189.99668451229388" y1="99.2704041080226" y2="99.22748670261217" /><path d="M 185.99683186730306 99.26182062694052 a86.0,86.0 0 0,1 -10.086455211305974,41.156179273409016" fill="none" id="id100" stroke="none" /><text fill="#e1ed5e" style="font-size:6.75px; font-family:Arial;" text-anchor="middle"><textPath startOffset="21.40746469413373" xlink:href="#id100">April</textPath></text><path d="M 120.93736805541906 101.62068470465957 l 9.814724382164792 0.7597217398347662 a30.844084102639393,30.844084102639393 0 0,0 -0.04539423337232324,0.5275498010782455 l -9.800236526094729 -0.928092588288669" fill="#ff4906" stroke="none" /><path d="M 120.9064616781168 101.97986365728391 l 10.831401637622747 1.0257449964486967 a31.879862785588625,31.879862785588625 0 0,0 -0.056271916260692334,0.5443797440548929 l -10.812197328880389 -1.2115292627865208" fill="#ff5908" stroke="none" /><path d="M 120.86939407059847 102.33845913500097 l 12.99017310351125 1.4555759911566428 a34.07146888169875,34.07146888169875 0 0,0 -0.07011894300646716,0.5806854356793953 l -12.96327207424512 -1.6783551037594466" fill="#ff790b" stroke="none" /><path d="M 120.82617615685814 102.69636545807757 l 9.298494240469685 1.203876241768913 a30.376103302840875,30.376103302840875 0 0,0 -0.07139177446098036,0.5165553162269757 l -9.276457949453494 -1.3633198661959738" fill="#ff4206" stroke="none" /><path d="M 120.16314734710363 105.8691983318838 l 12.362242362910141 3.5984685825924827 a33.87532571934533,33.87532571934533 0 0,0 -0.16731778308029469,0.5569464827145698 l -12.298648259826216 -3.8101526688977763" fill="#ff760a" stroke="none" /><path d="M 120.05942366710727 106.21446072829308 l 60.1782710013218 18.643382184879222 a84.0,84.0 0 0,0 -0.4385411368909806,1.3737238652344659 l -59.84936514865356 -19.67367508380507" fill="#4dd2ff" stroke="none" /><path d="M 119.83427380445688 106.89939002012753 l 30.39741797575855 10.57379989240985 a53.183975263439656,53.183975263439656 0 0,0 -0.30735229496943645,0.8597190706018827 l -30.211425510745173 -11.094053919392653" fill="#8cff24" stroke="none" /><path d="M 119.71291397450082 107.23885506374661 l 6.193208060187639 2.2742317845711 a27.59757199935905,27.59757199935905 0 0,0 -0.16712211235905863,0.4433112583337768 l -6.153255264014139 -2.3802113230990356" fill="#ff1802" stroke="none" /><path d="M 119.16976305983485 108.57439118712176 l 44.02154813334017 19.69027854855606 a69.22451419533132,69.22451419533132 0 0,0 -0.4945120258172093,1.0805980216221562 l -43.677051642667905 -20.443065552392902" fill="#39ff8d" stroke="none" /><path d="M 118.8641267826498 109.22738970284198 l 36.596122167652695 17.900997207267018 a61.73968407737525,61.73968407737525 0 0,0 -0.4738670303748367,0.9480514916889494 l -36.28343522406613 -18.52658055511971" fill="#2fff30" stroke="none" /><path d="M 118.70294669586154 109.54985784667822 l 4.4941682832643615 2.294754347651608 a26.046131793202125,26.046131793202125 0 0,0 -0.2067466668734205,0.39646399429963386 l -4.454113547415991 -2.371564585055745" fill="#ff0000" stroke="none" /><line stroke="#e1ed5e" stroke-width="0.3" x1="174.33088141563837" x2="178.70328620479359" y1="141.23008692659167" y2="143.65538615756765" /><path d="M 175.20536237346943 141.71514677278685 a86.0,86.0 0 0,1 -30.301960400862466,31.631185727798858" fill="none" id="id101" stroke="none" /><text fill="#e1ed5e" style="font-size:6.75px; font-family:Arial;" text-anchor="middle"><textPath startOffset="22.145653131862474" xlink:href="#id101">May</textPath></text><path d="M 118.18653347947321 110.5 l 29.743774444005567 17.172576181962118 a55.34515236392425,55.34515236392425 0 0,0 -0.48209920877311946,0.8187098534508841 l -29.444601525102684 -17.68063720370655" fill="#74ff27" stroke="none" /><path d="M 113.03279911837588 116.46651593811092 l 9.330386198913606 11.788638162657978 a36.03423082006371,36.03423082006371 0 0,0 -0.4883325592432766,0.3797303517206525 l -9.1266436950351 -11.947069565999424" fill="#ff950d" stroke="none" /><path d="M 112.7482090630111 116.68781488649013 l 8.02755979412278 10.508333458637999 a34.22372066878862,34.22372066878862 0 0,0 -0.4699194077713347,0.35263628423605337 l -7.8459873974406795 -10.644588770138068" fill="#ff7b0b" stroke="none" /><path d="M 112.16784306229584 117.11559508785304 l 6.2057051122284825 8.729101402092022 a31.71018147502383,31.71018147502383 0 0,0 -0.4463659668470473,0.31159811138721666 l -6.0549440542076765 -8.834344329284361" fill="#ff5608" stroke="none" /><line stroke="#e1ed5e" stroke-width="0.3" x1="143.1302829299769" x2="145.66735839644613" y1="173.24464959558577" y2="177.55315839532614" /><path d="M 143.63769802327073 174.10635135553383 a86.0,86.0 0 0,1 -40.68552437913181,11.842963189579606" fill="none" id="id102" stroke="none" /><text fill="#e1ed5e" style="font-size:6.75px; font-family:Arial;" text-anchor="middle"><textPath startOffset="21.407464694133747" xlink:href="#id102">June</textPath></text><path d="M 106.38641147887787 120.00534299687104 l 5.4764284392096485 17.154834085864117 a39.007765018549904,39.007765018549904 0 0,0 -0.6396518702323922,0.19816578448645325 l -5.1811359361056315 -17.246316458157217" fill="#ffbe11" stroke="none" /><path d="M 102.875027216393 120.80226474461374 l 2.301719835762421 16.65409813112316 a37.81240312279664,37.81240312279664 0 0,0 -0.6437510820955381,0.08334646592292702 l -2.0154909317761076 -16.69115619324648" fill="#ffae10" stroke="none" /><path d="M 102.51750503828377 120.84855314841334 l 1.3155281440916722 10.894460195013647 a31.97359910141764,31.97359910141764 0 0,0 -0.5454758406974707,0.061121705703876726 l -1.1283164017934022 -10.915437661224493" fill="#ff5a08" stroke="none" /><path d="M 101.80034050326958 120.92268563240118 l 1.437750627779452 16.708841659778262 a37.77058485799532,37.77058485799532 0 0,0 -0.6464723468303102,0.05004104822153544 l -1.150709286173906 -16.73106047499485" fill="#ffad10" stroke="none" /><line stroke="#e1ed5e" stroke-width="0.3" x1="101.45913802915013" x2="101.54496967792366" y1="184.9874750549273" y2="189.98673829345242" /><path d="M 101.47630435890484 185.9873277026323 a86.0,86.0 0 0,1 -42.54439059252881,-10.42667462771756" fill="none" id="id103" stroke="none" /><text fill="#e1ed5e" style="font-size:6.75px; font-family:Arial;" text-anchor="middle"><textPath startOffset="22.145653131862474" xlink:href="#id103">July</textPath></text><path d="M 99.27912038922189 120.98762331915562 l -0.34972743601157186 10.181932713372692 a31.187937134628786,31.187937134628786 0 0,0 -0.5349091207568467,-0.022971299217591917 l 0.5244623173692572 -10.17442884572927" fill="#ff4e07" stroke="none" /><path d="M 97.48249496171623 120.84855314841334 l -1.2286685744833268 10.17513835617337 a31.249052006561065,31.249052006561065 0 0,0 -0.5320109112968364,-0.06887946369688058 l 1.4031573076709574 -10.152547296276092" fill="#ff4f07" stroke="none" /><path d="M 92.25597844496254 119.51999308798841 l -5.661844144052864 14.27154583335156 a36.35361519594001,36.35361519594001 0 0,0 -0.5781013149658839,-0.235108772048637 l 5.905999920209188 -14.17224980472363" fill="#ff990e" stroke="none" /><line stroke="#e1ed5e" stroke-width="0.3" x1="58.13341422392154" x2="55.67067388415222" y1="173.97424548756322" y2="178.32567169271397" /><path d="M 57.64086615596768 174.84453072859336 a86.0,86.0 0 0,1 -31.369924170532247,-30.572349798747897" fill="none" id="id104" stroke="none" /><text fill="#e1ed5e" style="font-size:6.75px; font-family:Arial;" text-anchor="middle"><textPath startOffset="22.145653131862474" xlink:href="#id104">August</textPath></text><line stroke="#e1ed5e" stroke-width="0.3" x1="26.387840678322732" x2="22.057713659400548" y1="142.50000000000003" y2="145.00000000000006" /><path d="M 25.521815274538298 143.00000000000003 a86.0,86.0 0 0,1 -11.493303480769221,-40.785679425670985" fill="none" id="id105" stroke="none" /><text fill="#e1ed5e" style="font-size:6.75px; font-family:Arial;" text-anchor="middle"><textPath startOffset="21.40746469413373" xlink:href="#id105">September</textPath></text><line stroke="#e1ed5e" stroke-width="0.3" x1="15.003131293944662" x2="10.003315487706104" y1="100.72959589197737" y2="100.7725132973878" /><path d="M 14.003168132696942 100.73817937305945 a86.0,86.0 0 0,1 10.791469493833604,-42.45332614584628" fill="none" id="id106" stroke="none" /><text fill="#e1ed5e" style="font-size:6.75px; font-family:Arial;" text-anchor="middle"><textPath startOffset="22.145653131862435" xlink:href="#id106">October</textPath></text><line stroke="#e1ed5e" stroke-width="0.3" x1="26.387840678322718" x2="22.05771365940052" y1="57.49999999999999" y2="54.99999999999999" /><path d="M 25.521815274538284 56.99999999999999 a86.0,86.0 0 0,1 29.574782752854787,-30.34633250058573" fill="none" id="id107" stroke="none" /><text fill="#e1ed5e" style="font-size:6.75px; font-family:Arial;" text-anchor="middle"><textPath startOffset="21.40746469413373" xlink:href="#id107">November</textPath></text><line stroke="#e1ed5e" stroke-width="0.3" x1="56.869717070023135" x2="54.33264160355391" y1="26.7553504044142" y2="22.446841604673864" /><path d="M 56.362301976729285 25.89364864446614 a86.0,86.0 0 0,1 42.16139366436587,-11.88097634709845" fill="none" id="id108" stroke="none" /><text fill="#e1ed5e" style="font-size:6.75px; font-family:Arial;" text-anchor="middle"><textPath startOffset="22.145653131862474" xlink:href="#id108">December</textPath></text></svg>