<?xml version="1.0" encoding="utf-8" ?>
<svg baseProfile="full" height="200mm" version="1.1" viewBox="0,0,200,200" width="200mm" xmlns="http://www.w3.org/2000/svg" xmlns:ev="http://www.w3.org/2001/xml-events" xmlns:xlink="http://www.w3.org/1999/xlink"><defs /><rect fill="#1a1a1a" height="200" width="200" x="0" y="0" /><text alignment-baseline="middle" fill="#e1ed5e" style="dominant-baseline: central; font-size:9.0px; font-family:Arial;" text-anchor="middle" x="100.0" y="100.0">2017</text><line stroke="#e1ed5e" stroke-width="0.3" x1="100.0" x2="100.0" y1="15.0" y2="10.0" /><path d="M 100.0 14.0 a86.0,86.0 0 0,1 42.46469731375804,11.215312516191453" fill="none" id="id61" stroke="none" /><text fill="#e1ed5e" style="font-size:6.75px; font-family:Arial;" text-anchor="middle"><textPath startOffset="22.20632615414155" xlink:href="#id61">January</textPath></text><line stroke="#e1ed5e" stroke-width="0.3" x1="143.23703022742887" x2="145.7803849466894" y1="26.81831364943548" y2="22.513508569990506" /><path d="M 143.74570117128098 25.957352633546492 a86.0,86.0 0 0,1 28.547481713284135,27.462654790039103" fill="none" id="id62" stroke="none" /><text fill="#e1ed5e" style="font-size:6.75px; font-family:Arial;" text-anchor="middle"><textPath startOffset="19.985693538727396" xlink:href="#id62">February</textPath></text><line stroke="#e1ed5e" stroke-width="0.3" x1="172.23445277983987" x2="176.4835382374775" y1="55.19839476539836" y2="52.563006222186495" /><path d="M 173.08426987136738 54.67131705675599 a86.0,86.0 0 0,1 12.851231095245387,41.99856678651699" fill="none" id="id63" stroke="none" /><text fill="#e1ed5e" style="font-size:6.75px; font-family:Arial;" text-anchor="middle"><textPath startOffset="22.20632615414155" xlink:href="#id63">March</textPath></text><line stroke="#e1ed5e" stroke-width="0.3" x1="184.98032266829074" x2="189.97916517819016" y1="98.17113171792111" y2="98.06355123074" /><path d="M 185.9800911702706 98.14961562048488 a86.0,86.0 0 0,1 -9.607161424134198,41.387399972396054" fill="none" id="id64" stroke="none" /><text fill="#e1ed5e" style="font-size:6.75px; font-family:Arial;" text-anchor="middle"><textPath startOffset="21.466115282336823" xlink:href="#id64">April</textPath></text><line stroke="#e1ed5e" stroke-width="0.3" x1="174.80103733775053" x2="179.2010983576182" y1="140.37084112569926" y2="142.7455964860345" /><path d="M 175.68104954172406 140.8457921977663 a86.0,86.0 0 0,1 -30.038265399797805,32.042727171017184" fill="none" id="id65" stroke="none" /><text fill="#e1ed5e" style="font-size:6.75px; font-family:Arial;" text-anchor="middle"><textPath startOffset="22.206326154141568" xlink:href="#id65">May</textPath></text><path d="M 113.75828350139079 115.86535959552629 l 9.52416992888955 10.982793075564693 a35.537247214484445,35.537247214484445 0 0,0 -0.4655963607676587,0.39679131954352975 l -9.333708091544844 -11.14510878533117" fill="#ff3404" stroke="none" /><path d="M 113.48314897796784 116.09983520530334 l 9.376039201283312 11.19565512965775 a35.603177903669916,35.603177903669916 0 0,0 -0.4732338319834227,0.38943922612710624 l -9.181935240755198 -11.355389474642033" fill="#ff3505" stroke="none" /><path d="M 112.63410532772338 116.77436683061366 l 8.86336694186028 11.76793802018191 a35.732400985341954,35.732400985341954 0 0,0 -0.4944939413986131,0.3658147961661807 l -8.659488030043102 -11.91876276508786" fill="#ff3705" stroke="none" /><path d="M 111.1453310114006 117.79835938074945 l 8.167834430929188 13.043493496553243 a36.38980967672112,36.38980967672112 0 0,0 -0.5337532519492693,0.32787484194075833 l -7.942101979047611 -13.182156805322379" fill="#ff4206" stroke="none" /><line stroke="#e1ed5e" stroke-width="0.3" x1="143.8653032363475" x2="146.44561519142675" y1="172.8068346515853" y2="177.08958963109032" /><path d="M 144.38136562736335 173.6633856474863 a86.0,86.0 0 0,1 -40.68145358897372,12.25698825130547" fill="none" id="id66" stroke="none" /><text fill="#e1ed5e" style="font-size:6.75px; font-family:Arial;" text-anchor="middle"><textPath startOffset="21.466115282336833" xlink:href="#id66">June</textPath></text><path d="M 110.8373102113329 117.98757091392108 l 7.589683409019205 12.597218855208192 a35.70691052312328,35.70691052312328 0 0,0 -0.5291970371957487,0.31265893742720224 l -7.371718500795074 -12.725996364929145" fill="#ff3705" stroke="none" /><path d="M 109.2508944713604 118.85261126421891 l 6.523275570230434 13.293933778583607 a35.80816664798622,35.80816664798622 0 0,0 -0.5556870425102514,0.26676354945088226 l -6.29347585971995 -13.40425160453405" fill="#ff3805" stroke="none" /><path d="M 108.92500713936063 119.00905698771935 l 7.572770782019856 16.128976605016348 a38.81826993964842,38.81826993964842 0 0,0 -0.6072878106720966,0.27877604829338626 l -7.294014975580341 -16.25693972364381" fill="#ff6b09" stroke="none" /><path d="M 108.59647513512805 119.15986991738527 l 6.013722457493106 13.40341688816042 a35.69069236195425,35.69069236195425 0 0,0 -0.5626881118187368,0.24666593234202044 l -5.782113671016615 -13.504947373796895" fill="#ff3605" stroke="none" /><path d="M 107.2578585660854 119.70592522655815 l 6.096091281599798 16.55159271507704 a38.63852460721668,38.63852460721668 0 0,0 -0.6260921014267855,0.2244943522816436 l -5.810279619543278 -16.65407460839864" fill="#ff6809" stroke="none" /><path d="M 106.91757812671514 119.82793768551818 l 3.8795820033888693 11.120092726091157 a32.77741986845524,32.77741986845524 0 0,0 -0.5343191855808059,0.1812700781289766 l -3.6875930848708363 -11.185225791118256" fill="#ff0400" stroke="none" /><path d="M 106.57524785965236 119.94407469862006 l 5.900790409748072 17.898306987797493 a39.845920526448566,39.845920526448566 0 0,0 -0.6532428534504287,0.20914773294542816 l -5.591826211206703 -17.99722756740263" fill="#ff7b0b" stroke="none" /><path d="M 106.2309692047433 120.05430185196036 l 5.6054387119695575 18.04103924264739 a39.89179822326054,39.89179822326054 0 0,0 -0.6575023656976481,0.19810006921055226 l -5.294061371831663 -18.134854680963667" fill="#ff7c0b" stroke="none" /><path d="M 105.18746579009965 120.34920634021253 l 2.8944018124663033 11.35405650785611 a32.71717376484611,32.71717376484611 0 0,0 -0.5469169706016579,0.13441888495010257 l -2.6985315571214343 -11.402196651120244" fill="#ff0300" stroke="none" /><path d="M 104.83641907484287 120.43548508189849 l 3.4025201238987814 14.376783350820785 a35.77393118672122,35.77393118672122 0 0,0 -0.6004566628726442,0.13666198155075815 l -3.154543311633275 -14.433222065949227" fill="#ff3805" stroke="none" /><path d="M 104.13013068566511 120.58985236759428 l 4.096018285308445 20.419792546076835 a41.82655260522961,41.82655260522961 0 0,0 -0.7071324164607982,0.13552361060404772 l -3.7439182542759433 -20.487273355029348" fill="#ff9b0e" stroke="none" /><path d="M 103.7750983002368 120.6578951692458 l 2.942085924201863 16.099528480427438 a37.3661445330744,37.3661445330744 0 0,0 -0.6337138479799278,0.11017927546083336 l -2.664523104749885 -16.14778633440928" fill="#ff5207" stroke="none" /><path d="M 102.70371172650421 120.8252237178851 l 3.75452312141018 28.919053459310266 a50.16175743763823,50.16175743763823 0 0,0 -0.8572228169484201,0.10379774512665547 l -3.2561728814103796 -28.97939673316227" fill="#e5ff1a" stroke="none" /><path d="M 102.34483914955558 120.86867818915974 l 1.64181152892574 14.611849367534347 a35.70379838803659,35.70379838803659 0 0,0 -0.6113296227477802,0.06336681497382851 l -1.3900493095723572 -14.637945550963934" fill="#ff3605" stroke="none" /><path d="M 101.98527174616119 120.90594882070398 l 2.2055953934588866 23.226071949088283 a44.3305608424631,44.3305608424631 0 0,0 -0.7602811135770188,0.0656002535755117 l -1.8054699621403263 -23.260596454942455" fill="#ffc212" stroke="none" /><path d="M 101.62511606390274 120.93702456842531 l 1.9599936289351974 25.251387069809592 a46.327339457092876,46.327339457092876 0 0,0 -0.7955887524887287,0.05486845840256775 l -1.5250421156675382 -25.281383872728448" fill="#ffe115" stroke="none" /><path d="M 101.26447882468166 120.96189622390904 l 1.0557538913525348 17.501758887968272 a38.53357295167424,38.53357295167424 0 0,0 -0.6624323620101911,0.03424018654385865 l -0.7543334609288642 -17.517338881274334" fill="#ff6609" stroke="none" /><path d="M 100.90346689309514 120.98055641714683 l 0.8686149251857243 20.171214442847017 a41.18990797372726,41.18990797372726 0 0,0 -0.7086226413000771,0.02440639655846358 l -0.5212719322109948 -20.183177637831577" fill="#ff910d" stroke="none" /><line stroke="#e1ed5e" stroke-width="0.3" x1="102.19456741930631" x2="102.32365962044197" y1="184.97166512339345" y2="189.96999836594603" /><path d="M 102.22038585953345 185.97133177190398 a86.0,86.0 0 0,1 -42.740103519485714,-10.115201625700543" fill="none" id="id67" stroke="none" /><text fill="#e1ed5e" style="font-size:6.75px; font-family:Arial;" text-anchor="middle"><textPath startOffset="22.20632615414155" xlink:href="#id67">July</textPath></text><path d="M 100.18074693466247 120.99922214144158 l 0.22763513099785637 26.446704017121448 a47.447683662697045,47.447683662697045 0 0,0 -0.8167641313206054,0.0 l 0.22763513099783816 -26.446704017121448" fill="#fff116" stroke="none" /><path d="M 99.81925306533755 120.99922214144158 l -0.17761112811122778 20.634903385581946 a41.63566774895182,41.63566774895182 0 0,0 -0.7166099363193804,-0.012337089931676764 l 0.5327807543232761 -20.62878881837111" fill="#ff980e" stroke="none" /><path d="M 99.45781275523022 120.99299961872073 l -0.682738925276292 26.435033535502797 a47.44384863183203,47.44384863183203 0 0,0 -0.8162141404242735,-0.028112065331799076 l 1.1376734173752086 -26.419364671744905" fill="#fff116" stroke="none" /><path d="M 99.09653310690486 120.98055641714683 l -0.7642576504691523 17.747801137429896 a38.764248787102105,38.764248787102105 0 0,0 -0.6663979205300857,-0.034445160623114576 l 1.0696436394127269 -17.73201617004458" fill="#ff6a09" stroke="none" /><path d="M 98.73552117531835 120.96189622390904 l -1.5949467027711528 26.440227082942318 a47.488289170541705,47.488289170541705 0 0,0 -0.8155259762759998,-0.05624344608384474 l 2.0498354398260825 -26.40885529234219" fill="#fff216" stroke="none" /><path d="M 98.37488393609728 120.93702456842531 l -3.1685990822065913 40.82233774265404 a61.94512521557453,61.94512521557453 0 0,0 -1.0623756587905178,-0.0916662420840857 l 3.8708190587386504 -40.76174724829129" fill="#4aff2c" stroke="none" /><path d="M 98.01472825383883 120.90594882070398 l -1.6311777603874413 17.17715413120166 a38.25443029870998,38.25443029870998 0 0,0 -0.655002198611403,-0.0678936560284763 l 1.9266125556044376 -17.146531106717422" fill="#ff6109" stroke="none" /><path d="M 97.65516085044442 120.86867818915974 l -3.251817946252858 28.940638535034246 a50.122755343048865,50.122755343048865 0 0,0 -0.8565563035106996,-0.1037170396314713 l 3.749501672814947 -28.880375966677427" fill="#e6ff1a" stroke="none" /><path d="M 97.2962882734958 120.8252237178851 l -3.01447156528712 23.218838059882987 a44.41370281841374,44.41370281841374 0 0,0 -0.7572989113713724,-0.10495472859267142 l 3.4136990678453234 -23.16350876579771" fill="#ffc412" stroke="none" /><path d="M 96.58105272829116 120.7198165907248 l -3.086015605336563 18.702153691516003 a39.955053284479746,39.955053284479746 0 0,0 -0.6776206343884053,-0.11781303307828223 l 3.407485211197018 -18.646262079916713" fill="#ff7d0b" stroke="none" /><path d="M 96.22490169976321 120.6578951692458 l -4.18760728914666 22.915205250081858 a44.29469223796471,44.29469223796471 0 0,0 -0.7488595355741541,-0.1435207122934991 l 4.581434439292509 -22.83972733943989" fill="#ffc212" stroke="none" /><path d="M 95.86986931433489 120.58985236759428 l -3.697218945747535 18.431666709198907 a39.798823516693425,39.798823516693425 0 0,0 -0.6705315992986216,-0.14051641608965254 l 4.013942006475543 -18.365294312382712" fill="#ff7b0b" stroke="none" /><path d="M 95.51606077576429 120.51570834832081 l -6.890931062109929 31.52860126973036 a53.27286211243735,53.27286211243735 0 0,0 -0.8941719275622164,-0.20351061953929617 l 7.432623139065008 -31.405313916613377" fill="#baff1f" stroke="none" /><path d="M 95.16358092515715 120.4354850818985 l -4.706810946474757 19.887847473831002 a41.4372343145598,41.4372343145598 0 0,0 -0.6926859521643877,-0.17024535407651997 l 5.0484501833823545 -19.80388086144045" fill="#ff950d" stroke="none" /><path d="M 94.81253420990036 120.34920634021253 l -4.74167415158483 18.600470752559612 a40.19533761038428,40.19533761038428 0 0,0 -0.6689835547261,-0.17668463710007476 l 5.0611481491224195 -18.516094766155955" fill="#ff810b" stroke="none" /><path d="M 94.46302465271185 120.25689768951611 l -5.388015888929579 19.711932917488873 a41.43504378666557,41.43504378666557 0 0,0 -0.6863790610286441,-0.19397757870182356 l 5.726526118062837 -19.61626654544853" fill="#ff950d" stroke="none" /><path d="M 94.11515582081647 120.15858648285463 l -7.379657735259509 25.279083717512368 a47.33422529497639,47.33422529497639 0 0,0 -0.7801695209559459,-0.2350586768358591 l 7.813702230655701 -25.148309671570782" fill="#fff016" stroke="none" /><path d="M 93.76903079525671 120.05430185196036 l -6.936182818527857 22.324023658670868 a44.3767547877146,44.3767547877146 0 0,0 -0.7275223546449312,-0.2329296835585723 l 7.319426518263729 -22.201321128452587" fill="#ffc312" stroke="none" /><path d="M 93.42475214034765 119.94407469862007 l -6.289349098380429 19.076885145806518 a41.08689769346158,41.08689769346158 0 0,0 -0.6697756504849326,-0.22722426551147742 l 6.616794481802588 -18.965797893396918" fill="#ff8f0d" stroke="none" /><path d="M 93.08242187328487 119.8279376855182 l -12.30715333772578 35.276142169488104 a58.361373497774835,58.361373497774835 0 0,0 -0.9456778007654976,-0.33908641374994986 l 12.912550699121004 -35.0590682146982" fill="#76ff27" stroke="none" /><path d="M 92.7421414339146 119.70592522655815 l -7.030518575045375 19.088670863766477 a41.342210960936995,41.342210960936995 0 0,0 -0.6656682221668303,-0.2516987626579297 l 7.358057017972488 -18.964823851001913" fill="#ff930d" stroke="none" /><path d="M 92.40401165467489 119.57807347666478 l -10.579684878323201 27.26832092037729 a50.248778742732256,50.248778742732256 0 0,0 -0.8036907492533173,-0.3198051354146442 l 11.047496703618377 -27.082168940556578" fill="#e4ff1a" stroke="none" /><path d="M 91.7346041902142 119.30500536409082 l -11.565092566511002 27.01191560219883 a50.38358301113533,50.38358301113533 0 0,0 -0.7943315557929653,-0.3482116108070083 l 12.02834479696171 -26.80883943809737" fill="#e2ff1b" stroke="none" /><path d="M 91.40352486487194 119.15986991738527 l -12.07632314059491 26.915773827880844 a50.50078746999313,50.50078746999313 0 0,0 -0.7900535677543064,-0.3626748432755206 l 12.537844704116637 -26.70391191427125" fill="#e0ff1b" stroke="none" /><path d="M 91.07499286063937 119.00905698771935 l -8.880839000530058 18.914984831253594 a41.896075050589985,41.896075050589985 0 0,0 -0.6501619104523045,-0.31211722729134206 l 9.205113578982605 -18.75931332746269" fill="#ff9c0e" stroke="none" /><path d="M 90.7491055286396 118.85261126421891 l -18.987489405749166 38.695042707305205 a64.1025647038968,64.1025647038968 0 0,0 -0.9864044424560597,-0.49460366486778873 l 19.650747755887984 -38.362471201528116" fill="#30ff2f" stroke="none" /><path d="M 90.42595943632237 118.69057910512821 l -10.547673408852031 20.591319089573503 a44.13559673292302,44.13559673292302 0 0,0 -0.6731920550465296,-0.3521822661789319 l 10.900556366425056 -20.406707404449854" fill="#ffbf11" stroke="none" /><path d="M 90.10565033884886 118.52300852407294 l -9.641471675933003 18.049600848363106 a41.463285827624276,41.463285827624276 0 0,0 -0.6266429079361067,-0.341695677201295 l 9.95073739573775 -17.880964519402045" fill="#ff950d" stroke="none" /><line stroke="#e1ed5e" stroke-width="0.3" x1="58.666819895761336" x2="56.23545636021788" y1="174.27360380694188" y2="178.64263932499728" /><path d="M 58.180547188652646 175.14741091055294 a86.0,86.0 0 0,1 -31.652253787137756,-30.449443065178592" fill="none" id="id68" stroke="none" /><text fill="#e1ed5e" style="font-size:6.75px; font-family:Arial;" text-anchor="middle"><textPath startOffset="22.20632615414155" xlink:href="#id68">August</textPath></text><path d="M 89.7882731507175 118.34994917583269 l -12.330071050395366 22.15650501120273 a46.3562884985017,46.3562884985017 0 0,0 -0.6939122119266794,-0.3940214639282483 l 12.709632029243252 -21.940980381479847" fill="#ffe115" stroke="none" /><path d="M 89.4739219176387 118.17145234162733 l -9.480747467032478 16.366869921749412 a39.91451832770553,39.91451832770553 0 0,0 -0.5915562150480216,-0.3495018388717045 l 9.76107155310888 -16.20124951058396" fill="#ff7c0b" stroke="none" /><path d="M 88.8546689885994 117.79835938074946 l -10.736462318738974 17.14542301447331 a41.229610808587815,41.229610808587815 0 0,0 -0.5982577479952174,-0.38183640035621225 l 11.030001868781115 -16.958072185293293" fill="#ff920d" stroke="none" /><path d="M 88.54995079064634 117.60387380957326 l -24.08139539299827 37.023932203756004 a65.16656155851663,65.16656155851663 0 0,0 -0.9350635139857547,-0.6197091096147709 l 24.715133605723988 -36.603925073049915" fill="#31ff3e" stroke="none" /><path d="M 88.24862548938628 117.40417183066458 l -6.890394507656471 10.204900701956936 a33.31330722462262,33.31330722462262 0 0,0 -0.4724828193950656,-0.3249779915082887 l 7.065034211674427 -10.084781921083545" fill="#ff0d01" stroke="none" /><path d="M 87.65650970185807 116.9893568818739 l -20.479778631274808 28.187997043338534 a55.84228049512951,55.84228049512951 0 0,0 -0.7727907618088996,-0.5716921307683913 l 20.961954363502272 -27.831294963830377" fill="#97ff23" stroke="none" /><path d="M 87.36589467227662 116.77436683061367 l -11.347995015382761 15.066791533097605 a39.86226916282804,39.86226916282804 0 0,0 -0.5445399923750168,-0.4175300457766818 l 11.605663736251264 -14.869222145493556" fill="#ff7c0b" stroke="none" /><path d="M 85.70375840098266 115.38237550388516 l -27.705265357498412 29.810128222309494 a61.696750154772,61.696750154772 0 0,0 -0.7716916857238773,-0.7296826554183571 l 28.214292877613108 -29.328810930145206" fill="#4dff2c" stroke="none" /><path d="M 85.44109423537348 115.13401014063109 l -12.250919045333536 12.734853570836648 a38.67092280912253,38.67092280912253 0 0,0 -0.4757445118766091,-0.4656161358178993 l 12.46831350958594 -12.522087332096179" fill="#ff6809" stroke="none" /><path d="M 85.18274418774928 114.88116024355367 l -22.693476324583372 22.791349622931243 a53.16270332744302,53.16270332744302 0 0,0 -0.6429127098759786,-0.6512671807938317 l 23.082429659514883 -22.397341948156747" fill="#bbff1f" stroke="none" /><path d="M 84.9287848128048 114.62390073753433 l -14.468194139803163 14.038777386154045 a41.15975972488325,41.15975972488325 0 0,0 -0.4890043046749816,-0.512719058438271 l 14.707704995857103 -13.787651211133275" fill="#ff910d" stroke="none" /><path d="M 84.67929136418377 114.36230785411682 l -36.25617593819062 33.98813806954004 a70.69611476861294,70.69611476861294 0 0,0 -0.8246317739675206,-0.8949749238883768 l 36.83585412015387 -33.35901189085032" fill="#39ff8b" stroke="none" /><path d="M 84.43433777217949 114.09645910891817 l -16.655372313364595 15.083314241492815 a43.47015343526634,43.47015343526634 0 0,0 -0.4975079372664358,-0.5589554415642771 l 16.912539100279368 -14.794384630187674" fill="#ffb510" stroke="none" /><path d="M 84.19399662182784 113.82643327865904 l -14.143348294523554 12.372011877532568 a39.79098131758981,39.79098131758981 0 0,0 -0.44652584757234487,-0.5194104393327177 l 14.354216651666677 -12.12672433903832" fill="#ff7a0b" stroke="none" /><path d="M 83.72743513129214 113.27417163493432 l -14.80122626036062 12.07394282172097 a40.101214465907034,40.101214465907034 0 0,0 -0.4317222045518132,-0.5386398305019634 l 15.006866376967295 -11.817375157640747" fill="#ff7f0b" stroke="none" /><path d="M 83.28015986056508 112.70617746262583 l -15.915506567827634 12.094927294277321 a40.98976276908806,40.98976276908806 0 0,0 -0.42207497045983644,-0.5654383974368425 l 16.121342804982557 -11.819176017331172" fill="#ff8e0d" stroke="none" /><path d="M 82.6465618267979 111.8261652097733 l -17.54203315770402 11.954690486562457 a42.228225360012885,42.228225360012885 0 0,0 -0.4041781981608777,-0.6041915666324515 l 17.74521446127563 -11.650962005724184" fill="#ffa20e" stroke="none" /><path d="M 82.44556493220864 111.52570212397912 l -24.501148786020856 16.08670068346999 a50.31020693741832,50.31020693741832 0 0,0 -0.4690711352781393,-0.7280088186554063 l 24.77442478467604 -15.662570264893136" fill="#e3ff1b" stroke="none" /><path d="M 82.05923443525364 110.91462005526583 l -44.71738911618444 27.204709314395007 a73.34253622293231,73.34253622293231 0 0,0 -0.6468781111086777,-1.0842049225775787 l 45.17904810299135 -26.430942297931317" fill="#3dffad" stroke="none" /><line stroke="#e1ed5e" stroke-width="0.3" x1="26.63291911575756" x2="22.317208475507996" y1="142.92168965132927" y2="145.44649492493687" /><path d="M 25.769776987707644 143.4266507060508 a86.0,86.0 0 0,1 -11.730757126820373,-40.83630448921669" fill="none" id="id69" stroke="none" /><text fill="#e1ed5e" style="font-size:6.75px; font-family:Arial;" text-anchor="middle"><textPath startOffset="21.46611528233685" xlink:href="#id69">September</textPath></text><path d="M 81.69416730710424 110.29060199501025 l -15.282294941742009 8.590923857665178 a38.53147202646127,38.53147202646127 0 0,0 -0.32003798571303926,-0.5809619053860589 l 15.427909336906565 -8.326591433881296" fill="#ff6609" stroke="none" /><path d="M 81.35079622478065 109.6543875284942 l -31.075176260170633 16.087110085128636 a55.992309019150476,55.992309019150476 0 0,0 -0.4357303629356184,-0.8597373438222303 l 31.347485292892518 -15.54981852960372" fill="#95ff23" stroke="none" /><path d="M 81.18737489456691 109.33194174019688 l -41.70692355243661 20.688584318930626 a67.55625622115994,67.55625622115994 0 0,0 -0.5077873828481776,-1.046192410321912 l 42.05686419189951 -19.967602952643432" fill="#34ff60" stroke="none" /><path d="M 81.02952815118164 109.00673069616217 l -21.426232716089206 10.172667788394259 a44.71848684754248,44.71848684754248 0 0,0 -0.3241566092719202,-0.6982044980459468 l 21.59816394220095 -9.802343223069485" fill="#ffc812" stroke="none" /><path d="M 80.87730276802145 108.67885076344099 l -26.91814882697175 12.216822431654979 a50.56074232149099,50.56074232149099 0 0,0 -0.3528632166580471,-0.7956134003952787 l 27.124453128361072 -11.751660694767004" fill="#dfff1b" stroke="none" /><path d="M 80.73074385275274 108.34839909993369 l -19.743225508254092 8.553746174910989 a42.51654077900487,42.51654077900487 0 0,0 -0.2851625262771486,-0.6740399764706808 l 19.887539015723547 -8.21263167277415" fill="#ffa60f" stroke="none" /><path d="M 80.58989483394504 108.01547362559985 l -58.23031549816486 24.046420876799544 a84.0,84.0 0 0,0 -0.5403895429704488,-1.3412025286287785 l 58.6356076553927 -23.04051898032796" fill="#4dd2ff" stroke="none" /><path d="M 80.45479744820244 107.68017299344265 l -10.759905543675325 4.228041932516526 a32.56079175021906,32.56079175021906 0 0,0 -0.20049031591751437,-0.523416949529871 l 10.83109013918635 -4.042201416153497" fill="#ff0000" stroke="none" /><path d="M 80.20201598880116 107.00284435728193 l -18.065187932334783 6.389928353494401 a40.16199883606525,40.16199883606525 0 0,0 -0.22492472908422192,-0.6537365476506186 l 18.172503492362235 -6.078019102754485" fill="#ff800b" stroke="none" /><path d="M 80.0844068197444 106.66101706037122 l -18.154436120040415 6.0719762460751765 a40.142947692806594,40.142947692806594 0 0,0 -0.213537063063613,-0.6571995035676383 l 18.25626543412028 -5.758577842529735" fill="#ff800b" stroke="none" /><path d="M 79.50377843672027 104.57218783832718 l -18.4253004855691 4.1102178046597215 a39.878177570550996,39.878177570550996 0 0,0 -0.1436866971330089,-0.6712564132408607 l 18.493321221426548 -3.7924475720026973" fill="#ff7c0b" stroke="none" /><path d="M 79.35854240842038 103.8639653848113 l -28.765804639426715 5.384797701414798 a50.265467070231864,50.265467070231864 0 0,0 -0.1518820339565985,-0.8518351055206013 l 28.854233115722504 -4.8888438451609835" fill="#e4ff1b" stroke="none" /><path d="M 79.29508885075956 103.50808413554451 l -23.01487023454621 3.8994661976315212 a44.342880896313375,44.342880896313375 0 0,0 -0.12103124474013893,-0.7536616765302023 l 23.078583233647638 -3.502725291408105" fill="#ffc212" stroke="none" /><path d="M 79.1416061653843 102.43462659150553 l -23.868509313491906 2.7859723013661037 a45.03055094067194,45.03055094067194 0 0,0 -0.08323725474554894,-0.7706736016967705 l 23.912928869738504 -2.3747023777845513" fill="#ffcd13" stroke="none" /><path d="M 79.0235259727143 100.99374915477108 l -19.249070233681994 0.9119143307864034 a40.27065885246054,40.27065885246054 0 0,0 -0.026843015838635933,-0.6926989645355218 l 19.261915382371832 -0.5804381192368847" fill="#ff820c" stroke="none" /><line stroke="#e1ed5e" stroke-width="0.3" x1="15.007084014347285" x2="10.007500721073583" y1="101.09737516637583" y2="101.16192664675087" /><path d="M 14.007167355692545 101.11028546245083 a86.0,86.0 0 0,1 10.666146001902534,-42.60595125391555" fill="none" id="id70" stroke="none" /><text fill="#e1ed5e" style="font-size:6.75px; font-family:Arial;" text-anchor="middle"><textPath startOffset="22.20632615414155" xlink:href="#id70">October</textPath></text><path d="M 79.32604984820605 96.31383870115002 l -24.835678571581077 -4.428196668225791 a46.22736323604545,46.22736323604545 0 0,0 0.1464180762476876,-0.782171218041317 l 24.75577477142353 4.855045963729681" fill="#ffdf14" stroke="none" /><path d="M 79.46518482838121 95.60439243477599 l -33.92437547532961 -7.261727959984525 a55.69288031219037,55.69288031219037 0 0,0 0.20873058498062358,-0.9356982845134307 l 33.79435050334695 7.8446044140479145" fill="#99ff23" stroke="none" /><path d="M 79.62865764111835 94.90015583598534 l -28.09794993540262 -7.034154326917197 a49.96504993379573,49.96504993379573 0 0,0 0.21604808629866235,-0.8325214080697444 l 27.972705517233653 7.5167721605358055" fill="#e8ff1a" stroke="none" /><path d="M 79.81627453868168 94.20196356495316 l -28.32892339444895 -8.137849988172487 a50.47460776869738,50.47460776869738 0 0,0 0.24707104877246258,-0.8330007508631118 l 28.18464644856478 8.624280125782137" fill="#e1ff1b" stroke="none" /><path d="M 80.14247586403 93.16781622104843 l -32.70085054012349 -11.251061264654375 a55.58224986360056,55.58224986360056 0 0,0 0.3190604277484015,-0.9020267943840117 l 32.50233703156528 11.812285685464998" fill="#9aff22" stroke="none" /><path d="M 80.52162464483688 92.15188598940014 l -27.219617843073813 -10.967170529485482 a50.34597800288478,50.34597800288478 0 0,0 0.3307930055667874,-0.8010415012458104 l 27.026803150620825 11.434086601184605" fill="#e3ff1b" stroke="none" /><path d="M 81.43458229118936 90.18545643968196 l -28.352735892624644 -14.988575309043467 a53.07078144342282,53.07078144342282 0 0,0 0.4338963496182056,-0.8039440384075677 l 28.090531443787967 15.474400330783507" fill="#bcff1f" stroke="none" /><line stroke="#e1ed5e" stroke-width="0.3" x1="26.266209847984243" x2="21.928928074336255" y1="57.711370442889674" y2="55.22380399835377" /><path d="M 25.398753493254645 57.213857153982495 a86.0,86.0 0 0,1 29.58750427330803,-30.492523968695096" fill="none" id="id71" stroke="none" /><text fill="#e1ed5e" style="font-size:6.75px; font-family:Arial;" text-anchor="middle"><textPath startOffset="21.46611528233685" xlink:href="#id71">November</textPath></text><line stroke="#e1ed5e" stroke-width="0.3" x1="56.762969772571076" x2="54.21961505331055" y1="26.818313649435495" y2="22.513508569990535" /><path d="M 56.25429882871897 25.957352633546506 a86.0,86.0 0 0,1 42.265352541879196,-11.944610805530505" fill="none" id="id72" stroke="none" /><text fill="#e1ed5e" style="font-size:6.75px; font-family:Arial;" text-anchor="middle"><textPath startOffset="22.20632615414155" xlink:href="#id72">December</textPath></text></svg>