<?xml version="1.0" encoding="utf-8" ?>
<svg baseProfile="full" height="200mm" version="1.1" viewBox="0,0,200,200" width="200mm" xmlns="http://www.w3.org/2000/svg" xmlns:ev="http://www.w3.org/2001/xml-events" xmlns:xlink="http://www.w3.org/1999/xlink"><defs /><rect fill="#1a1a1a" height="200" width="200" x="0" y="0" /><text alignment-baseline="middle" fill="#e1ed5e" style="dominant-baseline: central; font-size:9.0px; font-family:Arial;" text-anchor="middle" x="100.0" y="100.0">2022</text><line stroke="#e1ed5e" stroke-width="0.3" x1="100.0" x2="100.0" y1="15.0" y2="10.0" /><path d="M 100.0 14.0 a86.0,86.0 0 0,1 42.46469731375804,11.215312516191453" fill="none" id="id121" stroke="none" /><text fill="#e1ed5e" style="font-size:6.75px; font-family:Arial;" text-anchor="middle"><textPath startOffset="22.20632615414155" xlink:href="#id121">January</textPath></text><path d="M 100.0 79.0 l 0.0 -26.690382421730014 a47.690382421730014,47.690382421730014 0 0,0 0.8209115378331966,0.007065844777152277 l -0.4594310585606682 26.68642795356142" fill="#ffcf13" stroke="none" /><path d="M 104.66035177308747 79.52364482259891 l 3.3129148442459417 -14.556073087659389 a35.92831767140916,35.92831767140916 0 0,0 0.6018443392422632,0.14243711028791808 l -3.5629828704507283 14.496890065230602" fill="#ff0000" stroke="none" /><line stroke="#e1ed5e" stroke-width="0.3" x1="143.23703022742887" x2="145.7803849466894" y1="26.81831364943548" y2="22.513508569990506" /><path d="M 143.74570117128098 25.957352633546492 a86.0,86.0 0 0,1 28.547481713284135,27.462654790039103" fill="none" id="id122" stroke="none" /><text fill="#e1ed5e" style="font-size:6.75px; font-family:Arial;" text-anchor="middle"><textPath startOffset="19.985693538727396" xlink:href="#id122">February</textPath></text><line stroke="#e1ed5e" stroke-width="0.3" x1="172.23445277983987" x2="176.4835382374775" y1="55.19839476539836" y2="52.563006222186495" /><path d="M 173.08426987136738 54.67131705675599 a86.0,86.0 0 0,1 12.851231095245387,41.99856678651699" fill="none" id="id123" stroke="none" /><text fill="#e1ed5e" style="font-size:6.75px; font-family:Arial;" text-anchor="middle"><textPath startOffset="22.20632615414155" xlink:href="#id123">March</textPath></text><path d="M 120.83666639777658 97.38593545837742 l 25.380028373911102 -3.1840521401588218 a46.57897629483601,46.57897629483601 0 0,0 0.09295754542717986,0.7964034810037677 l -25.43107627234187 2.7467049208302012" fill="#ffbd11" stroke="none" /><line stroke="#e1ed5e" stroke-width="0.3" x1="184.98032266829074" x2="189.97916517819016" y1="98.17113171792111" y2="98.06355123074" /><path d="M 185.9800911702706 98.14961562048488 a86.0,86.0 0 0,1 -9.607161424134198,41.387399972396054" fill="none" id="id124" stroke="none" /><text fill="#e1ed5e" style="font-size:6.75px; font-family:Arial;" text-anchor="middle"><textPath startOffset="21.466115282336823" xlink:href="#id124">April</textPath></text><path d="M 120.8583938346157 102.4346265915055 l 49.93850220373639 5.828905445413606 a71.27753117491109,71.27753117491109 0 0,0 -0.15273244416579673,1.2174278547936823 l -49.83076825032374 -6.687651054494684" fill="#39ff86" stroke="none" /><path d="M 119.54520255179757 107.68017299344265 l 22.305220240544642 8.764705796741213 a44.965452586642954,44.965452586642954 0 0,0 -0.2892721472946968,0.7179497465493038 l -22.151045478992554 -9.14735491113333" fill="#ffa20e" stroke="none" /><path d="M 118.64920377521936 109.65438752849418 l 25.841841444612335 13.377898314763568 a50.09929436547625,50.09929436547625 0 0,0 -0.40305476774999804,0.7624277254279067 l -25.607734168637442 -13.82074105527761" fill="#fff517" stroke="none" /><line stroke="#e1ed5e" stroke-width="0.3" x1="174.80103733775053" x2="179.2010983576182" y1="140.37084112569926" y2="142.7455964860345" /><path d="M 175.68104954172406 140.8457921977663 a86.0,86.0 0 0,1 -30.038265399797805,32.042727171017184" fill="none" id="id125" stroke="none" /><text fill="#e1ed5e" style="font-size:6.75px; font-family:Arial;" text-anchor="middle"><textPath startOffset="22.206326154141568" xlink:href="#id125">May</textPath></text><path d="M 117.94076556474637 110.91462005526583 l 23.13367064654367 14.073826709314645 a48.07839204654838,48.07839204654838 0 0,0 -0.436220654894002,0.7033265913694436 l -22.887985351981705 -14.469949632049362" fill="#ffd513" stroke="none" /><path d="M 117.75023020441432 111.22182372390056 l 25.595151517764087 16.18143963267834 a51.28119498638247,51.28119498638247 0 0,0 -0.47812421802604177,0.7420594041227577 l -25.312822436360996 -16.61962063672255" fill="#f6ff19" stroke="none" /><path d="M 117.55443506779139 111.5257021239791 l 30.59114039949429 20.085201860144775 a57.5955353110777,57.5955353110777 0 0,0 -0.551263035225418,0.8240634413111818 l -30.24087425885815 -20.608802215661765" fill="#98ff23" stroke="none" /><path d="M 117.35343817320211 111.8261652097733 l 20.655747844598345 14.076650638538203 a45.99623996162397,45.99623996162397 0 0,0 -0.45150586569723167,0.6504278744355632 l -20.41038107173898 -14.430119775160787" fill="#ffb310" stroke="none" /><path d="M 117.14729908036423 112.12312394758627 l 45.70558927231063 32.31380762934248 a76.97484304788455,76.97484304788455 0 0,0 -0.7742210633537886,1.0753253417106166 l -45.14258841658124 -33.09576657650423" fill="#42ffd5" stroke="none" /><path d="M 115.07121518719521 114.62390073753431 l 27.090046214148277 26.2860122352648 a58.746854744696016,58.746854744696016 0 0,0 -0.7104435481388688,0.7196755634195307 l -26.633562040953873 -26.748428292664993" fill="#88ff25" stroke="none" /><path d="M 114.81725581225074 114.88116024355365 l 15.199944744020375 15.265499650881013 a42.5423721955666,42.5423721955666 0 0,0 -0.5233725658462532,0.5122302110037452 l -14.934922225798328 -15.52487996480733" fill="#ff780b" stroke="none" /><path d="M 114.55890576462653 115.13401014063108 l 20.769374072550676 21.589803719469657 a50.95807944463006,50.95807944463006 0 0,0 -0.6373743532557472,0.602677233904559 l -20.39466388490412 -21.944115590120138" fill="#fbff18" stroke="none" /><path d="M 114.29624159901734 115.38237550388516 l 27.6290644421152 29.728138065242963 a61.5848172938194,61.5848172938194 0 0,0 -0.7827150229391079,0.7149916154608033 l -27.11324986970923 -30.19932244729035" fill="#62ff29" stroke="none" /><path d="M 114.0293411484842 115.62618273729858 l 42.088023445452606 46.878548211895726 a84.0,84.0 0 0,0 -1.0842305883736492,0.9567074329108447 l -41.27485050417237 -47.59607878657886" fill="#4dd2ff" stroke="none" /><line stroke="#e1ed5e" stroke-width="0.3" x1="143.8653032363475" x2="146.44561519142675" y1="172.8068346515853" y2="177.08958963109032" /><path d="M 144.38136562736335 173.6633856474863 a86.0,86.0 0 0,1 -40.68145358897372,12.25698825130547" fill="none" id="id126" stroke="none" /><text fill="#e1ed5e" style="font-size:6.75px; font-family:Arial;" text-anchor="middle"><textPath startOffset="21.466115282336833" xlink:href="#id126">June</textPath></text><line stroke="#e1ed5e" stroke-width="0.3" x1="102.19456741930631" x2="102.32365962044197" y1="184.97166512339345" y2="189.96999836594603" /><path d="M 102.22038585953345 185.97133177190398 a86.0,86.0 0 0,1 -42.740103519485714,-10.115201625700543" fill="none" id="id127" stroke="none" /><text fill="#e1ed5e" style="font-size:6.75px; font-family:Arial;" text-anchor="middle"><textPath startOffset="22.20632615414155" xlink:href="#id127">July</textPath></text><line stroke="#e1ed5e" stroke-width="0.3" x1="58.666819895761336" x2="56.23545636021788" y1="174.27360380694188" y2="178.64263932499728" /><path d="M 58.180547188652646 175.14741091055294 a86.0,86.0 0 0,1 -31.652253787137756,-30.449443065178592" fill="none" id="id128" stroke="none" /><text fill="#e1ed5e" style="font-size:6.75px; font-family:Arial;" text-anchor="middle"><textPath startOffset="22.20632615414155" xlink:href="#id128">August</textPath></text><line stroke="#e1ed5e" stroke-width="0.3" x1="26.63291911575756" x2="22.317208475507996" y1="142.92168965132927" y2="145.44649492493687" /><path d="M 25.769776987707644 143.4266507060508 a86.0,86.0 0 0,1 -11.730757126820373,-40.83630448921669" fill="none" id="id129" stroke="none" /><text fill="#e1ed5e" style="font-size:6.75px; font-family:Arial;" text-anchor="middle"><textPath startOffset="21.46611528233685" xlink:href="#id129">September</textPath></text><line stroke="#e1ed5e" stroke-width="0.3" x1="15.007084014347285" x2="10.007500721073583" y1="101.09737516637583" y2="101.16192664675087" /><path d="M 14.007167355692545 101.11028546245083 a86.0,86.0 0 0,1 10.666146001902534,-42.60595125391555" fill="none" id="id130" stroke="none" /><text fill="#e1ed5e" style="font-size:6.75px; font-family:Arial;" text-anchor="middle"><textPath startOffset="22.20632615414155" xlink:href="#id130">October</textPath></text><line stroke="#e1ed5e" stroke-width="0.3" x1="26.266209847984243" x2="21.928928074336255" y1="57.711370442889674" y2="55.22380399835377" /><path d="M 25.398753493254645 57.213857153982495 a86.0,86.0 0 0,1 29.58750427330803,-30.492523968695096" fill="none" id="id131" stroke="none" /><text fill="#e1ed5e" style="font-size:6.75px; font-family:Arial;" text-anchor="middle"><textPath startOffset="21.46611528233685" xlink:href="#id131">November</textPath></text><line stroke="#e1ed5e" stroke-width="0.3" x1="56.762969772571076" x2="54.21961505331055" y1="26.818313649435495" y2="22.513508569990535" /><path d="M 56.25429882871897 25.957352633546506 a86.0,86.0 0 0,1 42.265352541879196,-11.944610805530505" fill="none" id="id132" stroke="none" /><text fill="#e1ed5e" style="font-size:6.75px; font-family:Arial;" text-anchor="middle"><textPath startOffset="22.20632615414155" xlink:href="#id132">December</textPath></text></svg>